<svg id="visual" viewBox="0 0 1920 1080" width="1920" height="1080" xmlns="http://www.w3.org/2000/svg" xmlns:xlink="http://www.w3.org/1999/xlink" version="1.1"><rect x="0" y="0" width="1920" height="1080" fill="#001220"></rect><defs><linearGradient id="grad1_0" x1="43.8%" y1="0%" x2="100%" y2="100%"><stop offset="14.444444444444446%" stop-color="#ffffff" stop-opacity="1"></stop><stop offset="85.55555555555554%" stop-color="#ffffff" stop-opacity="1"></stop></linearGradient></defs><defs><linearGradient id="grad1_1" x1="43.8%" y1="0%" x2="100%" y2="100%"><stop offset="14.444444444444446%" stop-color="#ffffff" stop-opacity="1"></stop><stop offset="85.55555555555554%" stop-color="#c6c9cd" stop-opacity="1"></stop></linearGradient></defs><defs><linearGradient id="grad1_2" x1="43.8%" y1="0%" x2="100%" y2="100%"><stop offset="14.444444444444446%" stop-color="#91969e" stop-opacity="1"></stop><stop offset="85.55555555555554%" stop-color="#c6c9cd" stop-opacity="1"></stop></linearGradient></defs><defs><linearGradient id="grad1_3" x1="43.8%" y1="0%" x2="100%" y2="100%"><stop offset="14.444444444444446%" stop-color="#91969e" stop-opacity="1"></stop><stop offset="85.55555555555554%" stop-color="#5e6670" stop-opacity="1"></stop></linearGradient></defs><defs><linearGradient id="grad1_4" x1="43.8%" y1="0%" x2="100%" y2="100%"><stop offset="14.444444444444446%" stop-color="#2f3a46" stop-opacity="1"></stop><stop offset="85.55555555555554%" stop-color="#5e6670" stop-opacity="1"></stop></linearGradient></defs><defs><linearGradient id="grad1_5" x1="43.8%" y1="0%" x2="100%" y2="100%"><stop offset="14.444444444444446%" stop-color="#2f3a46" stop-opacity="1"></stop><stop offset="85.55555555555554%" stop-color="#001220" stop-opacity="1"></stop></linearGradient></defs><defs><linearGradient id="grad2_0" x1="0%" y1="0%" x2="56.3%" y2="100%"><stop offset="14.444444444444446%" stop-color="#ffffff" stop-opacity="1"></stop><stop offset="85.55555555555554%" stop-color="#ffffff" stop-opacity="1"></stop></linearGradient></defs><defs><linearGradient id="grad2_1" x1="0%" y1="0%" x2="56.3%" y2="100%"><stop offset="14.444444444444446%" stop-color="#c6c9cd" stop-opacity="1"></stop><stop offset="85.55555555555554%" stop-color="#ffffff" stop-opacity="1"></stop></linearGradient></defs><defs><linearGradient id="grad2_2" x1="0%" y1="0%" x2="56.3%" y2="100%"><stop offset="14.444444444444446%" stop-color="#c6c9cd" stop-opacity="1"></stop><stop offset="85.55555555555554%" stop-color="#91969e" stop-opacity="1"></stop></linearGradient></defs><defs><linearGradient id="grad2_3" x1="0%" y1="0%" x2="56.3%" y2="100%"><stop offset="14.444444444444446%" stop-color="#5e6670" stop-opacity="1"></stop><stop offset="85.55555555555554%" stop-color="#91969e" stop-opacity="1"></stop></linearGradient></defs><defs><linearGradient id="grad2_4" x1="0%" y1="0%" x2="56.3%" y2="100%"><stop offset="14.444444444444446%" stop-color="#5e6670" stop-opacity="1"></stop><stop offset="85.55555555555554%" stop-color="#2f3a46" stop-opacity="1"></stop></linearGradient></defs><defs><linearGradient id="grad2_5" x1="0%" y1="0%" x2="56.3%" y2="100%"><stop offset="14.444444444444446%" stop-color="#001220" stop-opacity="1"></stop><stop offset="85.55555555555554%" stop-color="#2f3a46" stop-opacity="1"></stop></linearGradient></defs><g transform="translate(1920, 0)"><path d="M0 918C-58.7 869.5 -117.4 821 -184.9 810.2C-252.5 799.3 -328.9 826 -390.9 811.8C-452.9 797.5 -500.5 742.4 -557.4 699C-614.3 655.5 -680.5 623.9 -713.8 569.2C-747.2 514.6 -747.7 437.1 -777.5 374.4C-807.4 311.8 -866.7 264.2 -895 204.3C-923.3 144.4 -920.6 72.2 -918 0L0 0Z" fill="#192633"></path><path d="M0 765C-48.9 724.6 -97.8 684.2 -154.1 675.1C-210.4 666.1 -274.1 688.3 -325.8 676.5C-377.4 664.6 -417.1 618.6 -464.5 582.5C-511.9 546.3 -567.1 519.9 -594.8 474.4C-622.6 428.9 -623 364.2 -647.9 312C-672.8 259.9 -722.2 220.2 -745.8 170.2C-769.4 120.3 -767.2 60.2 -765 0L0 0Z" fill="#46505b"></path><path d="M0 612C-39.1 579.7 -78.2 547.4 -123.3 540.1C-168.3 532.9 -219.3 550.7 -260.6 541.2C-302 531.7 -333.7 494.9 -371.6 466C-409.5 437 -453.6 415.9 -475.9 379.5C-498.1 343.1 -498.4 291.4 -518.4 249.6C-538.3 207.9 -577.8 176.1 -596.7 136.2C-615.5 96.2 -613.8 48.1 -612 0L0 0Z" fill="#777e87"></path><path d="M0 459C-29.3 434.8 -58.7 410.5 -92.5 405.1C-126.2 399.6 -164.5 413 -195.5 405.9C-226.5 398.8 -250.3 371.2 -278.7 349.5C-307.1 327.8 -340.2 311.9 -356.9 284.6C-373.6 257.3 -373.8 218.5 -388.8 187.2C-403.7 155.9 -433.3 132.1 -447.5 102.1C-461.6 72.2 -460.3 36.1 -459 0L0 0Z" fill="#abafb5"></path><path d="M0 306C-19.6 289.8 -39.1 273.7 -61.6 270.1C-84.2 266.4 -109.6 275.3 -130.3 270.6C-151 265.8 -166.8 247.5 -185.8 233C-204.8 218.5 -226.8 208 -237.9 189.7C-249.1 171.5 -249.2 145.7 -259.2 124.8C-269.1 103.9 -288.9 88.1 -298.3 68.1C-307.8 48.1 -306.9 24.1 -306 0L0 0Z" fill="#e2e4e6"></path><path d="M0 153C-9.8 144.9 -19.6 136.8 -30.8 135C-42.1 133.2 -54.8 137.7 -65.2 135.3C-75.5 132.9 -83.4 123.7 -92.9 116.5C-102.4 109.3 -113.4 104 -119 94.9C-124.5 85.8 -124.6 72.8 -129.6 62.4C-134.6 52 -144.4 44 -149.2 34C-153.9 24.1 -153.4 12 -153 0L0 0Z" fill="#ffffff"></path></g><g transform="translate(0, 1080)"><path d="M0 -918C68.8 -900.2 137.5 -882.4 193.6 -848.2C249.7 -814 293.1 -763.5 359.7 -746.9C426.3 -730.3 516.2 -747.8 572.4 -717.7C628.6 -687.7 651.1 -610.1 690.4 -550.5C729.6 -490.9 785.5 -449.2 815.4 -392.7C845.2 -336.1 849.1 -264.6 861.8 -196.7C874.6 -128.8 896.3 -64.4 918 0L0 0Z" fill="#192633"></path><path d="M0 -765C57.3 -750.2 114.6 -735.3 161.3 -706.8C208.1 -678.3 244.2 -636.2 299.7 -622.4C355.3 -608.6 430.1 -623.1 477 -598.1C523.8 -573.1 542.6 -508.5 575.3 -458.8C608 -409.1 654.6 -374.4 679.5 -327.2C704.4 -280.1 707.6 -220.5 718.2 -163.9C728.8 -107.3 746.9 -53.7 765 0L0 0Z" fill="#46505b"></path><path d="M0 -612C45.8 -600.1 91.7 -588.2 129.1 -565.5C166.4 -542.7 195.4 -509 239.8 -497.9C284.2 -486.9 344.1 -498.5 381.6 -478.5C419 -458.4 434.1 -406.8 460.2 -367C486.4 -327.3 523.7 -299.5 543.6 -261.8C563.5 -224.1 566 -176.4 574.6 -131.1C583.1 -85.9 597.5 -42.9 612 0L0 0Z" fill="#777e87"></path><path d="M0 -459C34.4 -450.1 68.8 -441.2 96.8 -424.1C124.8 -407 146.5 -381.7 179.8 -373.5C213.2 -365.2 258.1 -373.9 286.2 -358.9C314.3 -343.8 325.6 -305.1 345.2 -275.3C364.8 -245.5 392.8 -224.6 407.7 -196.3C422.6 -168 424.5 -132.3 430.9 -98.4C437.3 -64.4 448.1 -32.2 459 0L0 0Z" fill="#abafb5"></path><path d="M0 -306C22.9 -300.1 45.8 -294.1 64.5 -282.7C83.2 -271.3 97.7 -254.5 119.9 -249C142.1 -243.4 172.1 -249.3 190.8 -239.2C209.5 -229.2 217 -203.4 230.1 -183.5C243.2 -163.6 261.8 -149.7 271.8 -130.9C281.7 -112 283 -88.2 287.3 -65.6C291.5 -42.9 298.8 -21.5 306 0L0 0Z" fill="#e2e4e6"></path><path d="M0 -153C11.5 -150 22.9 -147.1 32.3 -141.4C41.6 -135.7 48.8 -127.2 59.9 -124.5C71.1 -121.7 86 -124.6 95.4 -119.6C104.8 -114.6 108.5 -101.7 115.1 -91.8C121.6 -81.8 130.9 -74.9 135.9 -65.4C140.9 -56 141.5 -44.1 143.6 -32.8C145.8 -21.5 149.4 -10.7 153 0L0 0Z" fill="#ffffff"></path></g></svg>