<svg id="visual" viewBox="0 0 900 600" width="900" height="600" xmlns="http://www.w3.org/2000/svg" xmlns:xlink="http://www.w3.org/1999/xlink" version="1.1"><path d="M0 367L21.5 367.3C43 367.7 86 368.3 128.8 375.3C171.7 382.3 214.3 395.7 257.2 397.8C300 400 343 391 385.8 382.3C428.7 373.7 471.3 365.3 514.2 369.3C557 373.3 600 389.7 642.8 394.8C685.7 400 728.3 394 771.2 399.2C814 404.3 857 420.7 878.5 428.8L900 437L900 601L878.5 601C857 601 814 601 771.2 601C728.3 601 685.7 601 642.8 601C600 601 557 601 514.2 601C471.3 601 428.7 601 385.8 601C343 601 300 601 257.2 601C214.3 601 171.7 601 128.8 601C86 601 43 601 21.5 601L0 601Z" fill="#354d8f"></path><path d="M0 400L21.5 411.2C43 422.3 86 444.7 128.8 449.2C171.7 453.7 214.3 440.3 257.2 436.2C300 432 343 437 385.8 439.5C428.7 442 471.3 442 514.2 443C557 444 600 446 642.8 438.3C685.7 430.7 728.3 413.3 771.2 415.8C814 418.3 857 440.7 878.5 451.8L900 463L900 601L878.5 601C857 601 814 601 771.2 601C728.3 601 685.7 601 642.8 601C600 601 557 601 514.2 601C471.3 601 428.7 601 385.8 601C343 601 300 601 257.2 601C214.3 601 171.7 601 128.8 601C86 601 43 601 21.5 601L0 601Z" fill="#2f4478"></path><path d="M0 448L21.5 447.2C43 446.3 86 444.7 128.8 451.7C171.7 458.7 214.3 474.3 257.2 481.7C300 489 343 488 385.8 481C428.7 474 471.3 461 514.2 460.8C557 460.7 600 473.3 642.8 475.8C685.7 478.3 728.3 470.7 771.2 467.8C814 465 857 467 878.5 468L900 469L900 601L878.5 601C857 601 814 601 771.2 601C728.3 601 685.7 601 642.8 601C600 601 557 601 514.2 601C471.3 601 428.7 601 385.8 601C343 601 300 601 257.2 601C214.3 601 171.7 601 128.8 601C86 601 43 601 21.5 601L0 601Z" fill="#2a3a62"></path><path d="M0 481L21.5 490.8C43 500.7 86 520.3 128.8 525C171.7 529.7 214.3 519.3 257.2 515.3C300 511.3 343 513.7 385.8 515.3C428.7 517 471.3 518 514.2 518.8C557 519.7 600 520.3 642.8 523.3C685.7 526.3 728.3 531.7 771.2 526.3C814 521 857 505 878.5 497L900 489L900 601L878.5 601C857 601 814 601 771.2 601C728.3 601 685.7 601 642.8 601C600 601 557 601 514.2 601C471.3 601 428.7 601 385.8 601C343 601 300 601 257.2 601C214.3 601 171.7 601 128.8 601C86 601 43 601 21.5 601L0 601Z" fill="#26304d"></path><path d="M0 531L21.5 533.2C43 535.3 86 539.7 128.8 543.5C171.7 547.3 214.3 550.7 257.2 553.5C300 556.3 343 558.7 385.8 553.7C428.7 548.7 471.3 536.3 514.2 537.2C557 538 600 552 642.8 553.2C685.7 554.3 728.3 542.7 771.2 543.5C814 544.3 857 557.7 878.5 564.3L900 571L900 601L878.5 601C857 601 814 601 771.2 601C728.3 601 685.7 601 642.8 601C600 601 557 601 514.2 601C471.3 601 428.7 601 385.8 601C343 601 300 601 257.2 601C214.3 601 171.7 601 128.8 601C86 601 43 601 21.5 601L0 601Z" fill="#212738"></path></svg>