<svg width="94" height="98" viewBox="0 0 94 98" fill="none" xmlns="http://www.w3.org/2000/svg">
<g id="&#240;&#159;&#166;&#134; icon &#34;adaptive interface&#34;">
<g id="Group">
<path id="Vector" d="M60.5651 86.4468H54.9242V83.4056H58.1111L58.832 80.0722L59.7964 79.868C61.1379 79.585 62.4757 79.1828 63.7725 78.6722L64.7483 78.2875L67.0793 80.8477L72.1769 77.9308L71.0046 74.3341L71.7171 73.6725C72.6413 72.8143 73.5064 71.8794 74.2917 70.8915L74.9443 70.0674L78.6631 71.2595L81.5982 66.2188L78.4082 63.3589L78.6791 62.4369C78.997 61.3602 79.2406 60.2607 79.4045 59.1695L79.5608 58.1262L83.8541 57.2134L83.8556 51.4017L79.1738 50.4069L78.9462 49.4797C78.7163 48.5441 78.4203 47.5956 78.0652 46.66L77.6949 45.6842L81.2643 42.4874L78.3308 37.4467L73.4479 39.0106L72.7916 38.3216C72.1724 37.672 71.5092 37.0475 70.8202 36.4671L70.0394 35.8069L71.5995 31.0181L66.5049 28.099L62.9993 31.9469L62.0735 31.657C61.2366 31.3953 60.367 31.1737 59.4898 30.9984L58.5125 30.8034L57.4456 25.875H54.2617V22.8337H59.8996L61.0689 28.2326C61.3975 28.3107 61.723 28.3935 62.0462 28.4815L65.9009 24.2497L75.2592 29.6098L73.561 34.825C73.8182 35.0587 74.0717 35.2978 74.3198 35.5406L79.7323 33.8075L85.1433 43.102L81.2666 46.572C81.4077 46.9901 81.5367 47.4082 81.6566 47.8255L86.8999 48.9387L86.8984 59.6779L82.2363 60.6682C82.1278 61.235 82.0011 61.8026 81.8569 62.3648L85.4756 65.6087L80.0646 74.9002L76.0013 73.5981C75.521 74.1581 75.0171 74.7006 74.4951 75.2219L75.8374 79.3414L66.4769 84.6978L63.9007 81.869C63.0736 82.1596 62.2367 82.4108 61.3937 82.621L60.5651 86.4468ZM54.5 70.8884V67.8472C61.3914 67.8472 66.9981 62.2943 66.9981 55.4689C66.9981 48.6412 61.3914 43.0868 54.5 43.0868V40.0448C63.0683 40.0448 70.0394 46.9635 70.0394 55.4689C70.0386 63.9712 63.0683 70.8884 54.5 70.8884Z" fill="#FEFFFF"/>
<path id="Vector_2" d="M46.7025 97.1262H4.5323C2.03282 97.1262 0 95.104 0 92.6181V4.5065C0 2.02144 2.03282 0 4.5323 0H46.7033C49.2028 0 51.2363 2.02144 51.2363 4.5065V92.6174C51.2341 95.104 49.1997 97.1262 46.7025 97.1262ZM4.5323 3.04126C3.71052 3.04126 3.04126 3.69914 3.04126 4.50726V92.6181C3.04126 93.427 3.71052 94.0849 4.5323 94.0849H46.7025C47.5243 94.0849 48.1928 93.4278 48.1928 92.6181L48.1943 4.5065C48.1943 3.69914 47.5258 3.0405 46.7033 3.0405L4.5323 3.04126Z" fill="#FEFFFF"/>
<path id="Vector_3" d="M6.73047 80.6443H44.5057V83.6856H6.73047V80.6443Z" fill="#FEFFFF"/>
<path id="Vector_4" d="M6.73047 13.6698H44.5057V16.7111H6.73047V13.6698Z" fill="#FEFFFF"/>
<path id="Vector_5" d="M17.5674 6.67139H33.6676V9.71265H17.5674V6.67139Z" fill="#FEFFFF"/>
<path id="Vector_6" d="M23.6519 86.2959H27.5839V89.3379H23.6519V86.2959Z" fill="#FEFFFF"/>
<path id="Vector_7" d="M82.8921 80.2998H85.9334V95.799H82.8921V80.2998Z" fill="#FEFFFF"/>
<path id="Vector_8" d="M76.5981 86.5295H92.2264V89.5708H76.5981V86.5295Z" fill="#FEFFFF"/>
<path id="Vector_9" d="M93.0987 17.6664H90.084V14.6251L93.0987 14.6524V17.6664Z" fill="#FEFFFF"/>
<path id="Vector_10" d="M87.1372 17.6664H84.1392V14.6251H87.1372V17.6664ZM81.1412 17.6664H78.1424V14.6251H81.1412V17.6664ZM75.1444 17.6664H72.1464V14.6251H75.1444V17.6664ZM69.1476 17.6664H66.1489V14.6251H69.1476V17.6664ZM63.1508 17.6664H60.1528V14.6251H63.1508V17.6664Z" fill="#FEFFFF"/>
<path id="Vector_11" d="M57.6763 17.6664H54.6616V14.6525H57.7029L57.6763 17.6664Z" fill="#FEFFFF"/>
<path id="Vector_12" d="M54.6616 7.04395H57.7029V10.8812H54.6616V7.04395Z" fill="#FEFFFF"/>
<path id="Vector_13" d="M57.6763 3.3667L54.6616 3.34014V0.325439H57.6763V3.3667Z" fill="#FEFFFF"/>
<path id="Vector_14" d="M87.6069 3.3667H84.6089V0.325439H87.6069V3.3667ZM81.6109 3.3667H78.6121V0.325439H81.6109V3.3667ZM75.6141 3.3667H72.6161V0.325439H75.6141V3.3667ZM69.6174 3.3667H66.6186V0.325439H69.6174V3.3667ZM63.6206 3.3667H60.6226V0.325439H63.6206V3.3667Z" fill="#FEFFFF"/>
<path id="Vector_15" d="M91.5778 3.3667L90.0571 3.34014L90.0837 0.325439H93.0984V3.34014L91.5778 3.3667Z" fill="#FEFFFF"/>
<path id="Vector_16" d="M90.0571 7.11072H93.0984V10.9487H90.0571V7.11072Z" fill="#FEFFFF"/>
<path id="Vector_17" d="M15.1304 63.2928H36.1058V66.3341H15.1304V63.2928Z" fill="#FEFFFF"/>
<path id="Vector_18" d="M17.0977 70.4415H34.1403V73.4828H17.0977V70.4415Z" fill="#FEFFFF"/>
<path id="Vector_19" d="M31.5167 47.1365V44.0953C32.8469 44.0953 33.9297 43.0284 33.9297 41.7164V30.0173C33.9297 28.7053 32.8469 27.6385 31.5167 27.6385H19.7189C18.3887 27.6385 17.3059 28.7053 17.3059 30.0173V41.7172C17.3059 43.0292 18.3887 44.096 19.7189 44.096V47.1373C16.7118 47.1373 14.2646 44.7061 14.2646 41.7172V30.0173C14.2646 27.0291 16.7118 24.5964 19.7189 24.5964H31.5174C34.5246 24.5964 36.9717 27.0284 36.9717 30.0173V41.7172C36.9709 44.7053 34.5238 47.1365 31.5167 47.1365Z" fill="#FEFFFF"/>
<path id="Vector_20" d="M33.2104 54.9514H18.0269L25.6194 41.9122L33.2104 54.9514ZM23.3157 51.9102H27.9201L25.6179 47.9561L23.3157 51.9102Z" fill="#FEFFFF"/>
<path id="Vector_21" d="M24.6748 54.0325H27.7161V59.7531H24.6748V54.0325Z" fill="#FEFFFF"/>
</g>
</g>
</svg>
