<svg width="32" height="32" viewBox="0 0 32 32" fill="none" xmlns="http://www.w3.org/2000/svg">
<g id="&#240;&#159;&#166;&#134; icon &#34;add media image&#34;">
<path id="Vector" d="M16.9971 28.9948H2.89983C2.40287 28.9948 2 28.592 2 28.095V2.89983C2 2.40287 2.40287 2 2.89983 2H28.095C28.592 2 28.9948 2.40287 28.9948 2.89983V16.9971" stroke="black" stroke-width="2.24957" stroke-linecap="round" stroke-linejoin="round"/>
<path id="Vector_2" d="M2 21.4963L12.498 16.9971L20.7464 20.7464" stroke="black" stroke-width="2.24957" stroke-linecap="round" stroke-linejoin="round"/>
<path id="Vector_3" d="M21.4961 12.498C19.8395 12.498 18.4966 11.1551 18.4966 9.4986C18.4966 7.84206 19.8395 6.49918 21.4961 6.49918C23.1526 6.49918 24.4955 7.84206 24.4955 9.4986C24.4955 11.1551 23.1526 12.498 21.4961 12.498Z" stroke="black" stroke-width="2.24957" stroke-linecap="round" stroke-linejoin="round"/>
<path id="Vector_4" d="M21.4963 25.9954H25.9954M25.9954 25.9954H30.4945M25.9954 25.9954V21.4963M25.9954 25.9954V30.4945" stroke="black" stroke-width="2.24957" stroke-linecap="round" stroke-linejoin="round"/>
</g>
</svg>
