<svg width="97" height="76" viewBox="0 0 97 76" fill="none" xmlns="http://www.w3.org/2000/svg">
<g id="&#240;&#159;&#166;&#134; icon &#34;comments&#34;">
<path id="Vector" d="M70.0556 26.9444C70.0556 12.0576 54.3773 0 35.0278 0C15.6783 0 0 12.0576 0 26.9444C0 32.7207 2.37448 38.0422 6.39931 42.4375C4.14271 47.5233 0.421007 51.5649 0.370486 51.6154C0 52.0028 -0.101042 52.5754 0.117882 53.0806C0.336806 53.5858 0.808333 53.8889 1.34722 53.8889C7.51076 53.8889 12.6134 51.8175 16.2845 49.6788C21.7071 52.3227 28.1233 53.8889 35.0278 53.8889C54.3773 53.8889 70.0556 41.8312 70.0556 26.9444ZM90.6007 63.9931C94.6255 59.6146 97 54.2762 97 48.5C97 37.2339 87.9905 27.5844 75.2255 23.5595C75.3771 24.671 75.4444 25.7993 75.4444 26.9444C75.4444 44.7783 57.3075 59.2778 35.0278 59.2778C33.209 59.2778 31.4408 59.1431 29.6894 58.9578C34.9941 68.641 47.4559 75.4444 61.9722 75.4444C68.8767 75.4444 75.2929 73.8951 80.7154 71.2344C84.3866 73.3731 89.4892 75.4444 95.6528 75.4444C96.1917 75.4444 96.68 75.1245 96.8821 74.6361C97.101 74.1477 97 73.5752 96.6295 73.171C96.579 73.1205 92.8573 69.0957 90.6007 63.9931Z" fill="white"/>
</g>
</svg>
