<svg width="93" height="93" viewBox="0 0 93 93" fill="none" xmlns="http://www.w3.org/2000/svg">
<g id="&#240;&#159;&#166;&#134; icon &#34;notifications active&#34;">
<path id="Vector" d="M46.5 85.25C50.7625 85.25 54.25 81.7625 54.25 77.5H38.75C38.75 81.7625 42.2375 85.25 46.5 85.25ZM69.75 62V42.625C69.75 30.7288 63.4337 20.77 52.3125 18.135V15.5C52.3125 12.2838 49.7162 9.6875 46.5 9.6875C43.2837 9.6875 40.6875 12.2838 40.6875 15.5V18.135C29.605 20.77 23.25 30.69 23.25 42.625V62L15.5 69.75V73.625H77.5V69.75L69.75 62ZM62 65.875H31V42.625C31 33.015 36.8512 25.1875 46.5 25.1875C56.1487 25.1875 62 33.015 62 42.625V65.875ZM29.3725 15.81L23.8312 10.2688C14.5312 17.36 8.40871 28.2875 7.86621 40.6875H15.6162C16.1975 30.4187 21.4675 21.4288 29.3725 15.81ZM77.3837 40.6875H85.1337C84.5525 28.2875 78.43 17.36 69.1687 10.2688L63.6662 15.81C71.4937 21.4288 76.8025 30.4187 77.3837 40.6875Z" fill="white"/>
</g>
</svg>
