<svg width="25" height="26" viewBox="0 0 25 26" fill="none" xmlns="http://www.w3.org/2000/svg">
<g id="&#240;&#159;&#166;&#134; icon &#34;settings&#34;">
<path id="Vector" d="M12.7229 16.559C14.6041 16.559 16.1291 15.034 16.1291 13.1528C16.1291 11.2715 14.6041 9.74658 12.7229 9.74658C10.8416 9.74658 9.31668 11.2715 9.31668 13.1528C9.31668 15.034 10.8416 16.559 12.7229 16.559Z" stroke="black" stroke-width="1.7031" stroke-linecap="round" stroke-linejoin="round"/>
<path id="Vector_2" d="M21.3773 11.3309L20.131 8.32143L21.806 6.34038L19.5352 4.06957L17.5649 5.75332L14.4915 4.48938L13.7847 1.79877H11.5658L10.8484 4.52502L7.84557 5.7908L5.91038 4.06957L3.63958 6.34038L5.28974 8.37144L4.06252 11.3887L1.36877 12.0174V14.2882L4.095 15.0324L5.36056 18.0347L3.63958 19.9652L5.91038 22.236L7.94407 20.5787L10.9027 21.7958L11.5874 24.5068H13.8582L14.5445 21.7968L17.554 20.5505C18.0557 20.9091 19.5352 22.236 19.5352 22.236L21.806 19.9652L20.121 17.9776L21.3676 14.9672L24.0767 14.2623L24.0768 12.0174L21.3773 11.3309Z" stroke="black" stroke-width="1.7031" stroke-linecap="round" stroke-linejoin="round"/>
</g>
</svg>
