<svg width="82" height="70" viewBox="0 0 82 70" fill="none" xmlns="http://www.w3.org/2000/svg">
<g id="&#240;&#159;&#166;&#134; icon &#34;Tasks&#34;">
<path id="Vector" d="M22.3417 0.56482C22.1633 0.385791 21.9513 0.243742 21.7179 0.146817C21.4844 0.0498929 21.2342 0 20.9814 0C20.7287 0 20.4784 0.0498929 20.245 0.146817C20.0116 0.243742 19.7996 0.385791 19.6212 0.56482L9.43048 10.6963L5.7978 7.15645C5.61939 6.97742 5.4074 6.83537 5.17397 6.73845C4.94055 6.64153 4.69029 6.59163 4.43754 6.59163C4.1848 6.59163 3.93454 6.64153 3.70111 6.73845C3.46769 6.83537 3.2557 6.97742 3.07729 7.15645L0.56482 9.67212C0.385791 9.85053 0.243742 10.0625 0.146817 10.2959C0.0498928 10.5294 0 10.7796 0 11.0324C0 11.2851 0.0498928 11.5354 0.146817 11.7688C0.243742 12.0022 0.385791 12.2142 0.56482 12.3926L8.18064 19.9781C8.56079 20.3394 9.06522 20.5409 9.58971 20.5409C10.1142 20.5409 10.6186 20.3394 10.9988 19.9781L13.4936 17.4784L25.0478 5.92582C25.4078 5.56554 25.6112 5.07784 25.6139 4.56853C25.6166 4.05922 25.4184 3.56939 25.0622 3.20531L22.3417 0.56482ZM22.3417 26.04C22.1633 25.861 21.9513 25.7189 21.7179 25.622C21.4844 25.5251 21.2342 25.4752 20.9814 25.4752C20.7287 25.4752 20.4784 25.5251 20.245 25.622C20.0116 25.7189 19.7996 25.861 19.6212 26.04L9.43048 36.2371L5.7978 32.7004C5.61939 32.5214 5.4074 32.3794 5.17397 32.2824C4.94055 32.1855 4.69029 32.1356 4.43754 32.1356C4.1848 32.1356 3.93454 32.1855 3.70111 32.2824C3.46769 32.3794 3.2557 32.5214 3.07729 32.7004L0.56482 35.2113C0.385791 35.3897 0.243742 35.6017 0.146817 35.8351C0.0498928 36.0686 0 36.3188 0 36.5716C0 36.8243 0.0498928 37.0746 0.146817 37.308C0.243742 37.5414 0.385791 37.7534 0.56482 37.9318L8.16144 45.5332C8.54132 45.8945 9.04549 46.0959 9.5697 46.0959C10.0939 46.0959 10.5981 45.8945 10.978 45.5332L13.4904 43.0224L25.0446 31.465C25.4032 31.1072 25.606 30.6223 25.6087 30.1157C25.6113 29.6092 25.4138 29.1221 25.059 28.7605L22.3417 26.04ZM10.2418 53.7748C6.00264 53.7748 2.46598 57.2154 2.46598 61.4562C2.46598 65.697 6.00584 69.1376 10.2418 69.1376C12.2791 69.1376 14.2329 68.3284 15.6734 66.8878C17.114 65.4473 17.9233 63.4935 17.9233 61.4562C17.9233 59.419 17.114 57.4652 15.6734 56.0246C14.2329 54.5841 12.2791 53.7748 10.2418 53.7748ZM79.3748 56.3353H33.2861C32.6071 56.3353 31.9558 56.605 31.4756 57.0852C30.9954 57.5654 30.7257 58.2166 30.7257 58.8957V64.0167C30.7257 64.6958 30.9954 65.347 31.4756 65.8272C31.9558 66.3074 32.6071 66.5772 33.2861 66.5772H79.3748C80.0538 66.5772 80.7051 66.3074 81.1853 65.8272C81.6655 65.347 81.9352 64.6958 81.9352 64.0167V58.8957C81.9352 58.2166 81.6655 57.5654 81.1853 57.0852C80.7051 56.605 80.0538 56.3353 79.3748 56.3353ZM79.3748 5.12567H33.2861C32.6071 5.12567 31.9558 5.39544 31.4756 5.87562C30.9954 6.3558 30.7257 7.00707 30.7257 7.68615V12.8071C30.7257 13.4862 30.9954 14.1375 31.4756 14.6176C31.9558 15.0978 32.6071 15.3676 33.2861 15.3676H79.3748C80.0538 15.3676 80.7051 15.0978 81.1853 14.6176C81.6655 14.1375 81.9352 13.4862 81.9352 12.8071V7.68615C81.9352 7.00707 81.6655 6.3558 81.1853 5.87562C80.7051 5.39544 80.0538 5.12567 79.3748 5.12567ZM79.3748 30.7305H33.2861C32.6071 30.7305 31.9558 31.0002 31.4756 31.4804C30.9954 31.9606 30.7257 32.6119 30.7257 33.2909V38.4119C30.7257 39.091 30.9954 39.7422 31.4756 40.2224C31.9558 40.7026 32.6071 40.9724 33.2861 40.9724H79.3748C80.0538 40.9724 80.7051 40.7026 81.1853 40.2224C81.6655 39.7422 81.9352 39.091 81.9352 38.4119V33.2909C81.9352 32.6119 81.6655 31.9606 81.1853 31.4804C80.7051 31.0002 80.0538 30.7305 79.3748 30.7305Z" fill="white"/>
</g>
</svg>
