<svg width="98" height="98" viewBox="0 0 98 98" fill="none" xmlns="http://www.w3.org/2000/svg">
<g id="&#240;&#159;&#166;&#134; icon &#34;trending up&#34;">
<path id="Vector" d="M85.7494 28.5833C85.788 28.2988 85.788 28.0104 85.7494 27.7258C85.7138 27.4861 85.6451 27.2525 85.5452 27.0317C85.4373 26.8321 85.3145 26.641 85.1777 26.46C85.0224 26.2017 84.8297 25.9678 84.606 25.7658L84.1161 25.48C83.8803 25.3042 83.6185 25.1665 83.3402 25.0717H82.5235C82.2747 24.8307 81.9842 24.637 81.666 24.5H61.2494C60.1664 24.5 59.1278 24.9302 58.362 25.696C57.5963 26.4618 57.166 27.5004 57.166 28.5833C57.166 29.6663 57.5963 30.7049 58.362 31.4707C59.1278 32.2365 60.1664 32.6667 61.2494 32.6667H72.8052L56.4719 51.8992L38.8319 41.405C37.9964 40.9081 37.0109 40.7255 36.0529 40.8902C35.0948 41.0548 34.2269 41.5559 33.6052 42.3033L13.1885 66.8033C12.8447 67.2159 12.5857 67.6923 12.4262 68.2052C12.2668 68.7181 12.2101 69.2574 12.2594 69.7922C12.3087 70.327 12.4631 70.8469 12.7136 71.322C12.9641 71.797 13.3059 72.218 13.7194 72.5608C14.454 73.1696 15.3786 73.5019 16.3327 73.5C16.9326 73.501 17.5253 73.3698 18.0688 73.1157C18.6122 72.8616 19.0929 72.4909 19.4769 72.03L37.6477 50.225L55.0835 60.6783C55.9105 61.1688 56.8841 61.3518 57.8328 61.1949C58.7814 61.0381 59.6443 60.5515 60.2694 59.8208L77.5827 39.6083V49C77.5827 50.083 78.0129 51.1216 78.7787 51.8874C79.5445 52.6531 80.5831 53.0833 81.666 53.0833C82.749 53.0833 83.7876 52.6531 84.5534 51.8874C85.3192 51.1216 85.7494 50.083 85.7494 49V28.5833Z" fill="white"/>
</g>
</svg>
