<svg width="91" height="73" viewBox="0 0 91 73" fill="none" xmlns="http://www.w3.org/2000/svg">
<g id="&#240;&#159;&#166;&#134; icon &#34;User Cog&#34;">
<path id="Vector" d="M86.8146 53.0842C87.1843 51.0791 87.1843 49.0314 86.8146 47.0264L90.4834 44.9075C90.9101 44.6658 91.0949 44.1681 90.9527 43.6988C90 40.6273 88.3646 37.8401 86.2316 35.5364C85.9045 35.1809 85.3784 35.0956 84.9518 35.3373L81.2829 37.4561C79.7329 36.1337 77.9554 35.1098 76.0357 34.4272V30.1896C76.0357 29.7061 75.6944 29.2795 75.2251 29.18C72.054 28.4689 68.826 28.4974 65.8113 29.18C65.342 29.2795 65.0008 29.7061 65.0008 30.1896V34.4272C63.081 35.1098 61.3035 36.1337 59.7535 37.4561L56.0847 35.3373C55.6723 35.0956 55.1319 35.1809 54.8048 35.5364C52.6718 37.8401 51.0365 40.6273 50.0837 43.6988C49.9415 44.1681 50.1406 44.6658 50.553 44.9075L54.2218 47.0264C53.8521 49.0314 53.8521 51.0791 54.2218 53.0842L50.553 55.203C50.1264 55.4448 49.9415 55.9425 50.0837 56.4117C51.0365 59.4833 52.6718 62.2563 54.8048 64.5742C55.1319 64.9297 55.6581 65.015 56.0847 64.7732L59.7535 62.6544C61.3035 63.9769 63.081 65.0008 65.0008 65.6833V69.921C65.0008 70.4045 65.342 70.8311 65.8113 70.9306C68.9824 71.6416 72.2104 71.6132 75.2251 70.9306C75.6944 70.8311 76.0357 70.4045 76.0357 69.921V65.6833C77.9554 65.0008 79.7329 63.9769 81.2829 62.6544L84.9518 64.7732C85.3642 65.015 85.9045 64.9297 86.2316 64.5742C88.3646 62.2705 90 59.4833 90.9527 56.4117C91.0949 55.9425 90.8958 55.4448 90.4834 55.203L86.8146 53.0842ZM70.5324 56.9521C66.7214 56.9521 63.6356 53.8521 63.6356 50.0553C63.6356 46.2585 66.7356 43.1585 70.5324 43.1585C74.3292 43.1585 77.4293 46.2585 77.4293 50.0553C77.4293 53.8521 74.3435 56.9521 70.5324 56.9521ZM31.8534 36.4038C41.9071 36.4038 50.0553 28.2556 50.0553 18.2019C50.0553 8.1482 41.9071 0 31.8534 0C21.7996 0 13.6514 8.1482 13.6514 18.2019C13.6514 28.2556 21.7996 36.4038 31.8534 36.4038ZM60.4645 68.6127C60.1374 68.4421 59.8104 68.243 59.4975 68.0581L58.3741 68.7122C57.5209 69.1957 56.5539 69.4659 55.587 69.4659C54.0369 69.4659 52.5438 68.8118 51.4773 67.6742C48.875 64.8586 46.8842 61.4315 45.7608 57.7769C44.9786 55.2599 46.0309 52.6007 48.3062 51.2782L49.4296 50.6241C49.4154 50.2544 49.4154 49.8846 49.4296 49.5149L48.3062 48.8608C46.0309 47.5525 44.9786 44.8791 45.7608 42.3621C45.8887 41.9497 46.0736 41.5373 46.2158 41.125C45.6754 41.0823 45.1493 40.9543 44.5947 40.9543H42.2199C39.063 42.4048 35.5506 43.2296 31.8534 43.2296C28.1561 43.2296 24.6579 42.4048 21.4868 40.9543H19.112C8.56059 40.9543 0 49.5149 0 60.0663V65.982C0 69.7503 3.05735 72.8077 6.82572 72.8077H56.881C58.3172 72.8077 59.6539 72.3526 60.7489 71.599C60.5783 71.0586 60.4645 70.504 60.4645 69.921V68.6127Z" fill="white"/>
</g>
</svg>
