<svg width="103" height="73" viewBox="0 0 103 73" fill="none" xmlns="http://www.w3.org/2000/svg">
<g id="&#240;&#159;&#166;&#134; icon &#34;Users&#34;">
<path id="Vector" d="M15.45 30.9C21.1311 30.9 25.75 26.2811 25.75 20.6C25.75 14.9189 21.1311 10.3 15.45 10.3C9.76891 10.3 5.15 14.9189 5.15 20.6C5.15 26.2811 9.76891 30.9 15.45 30.9ZM87.55 30.9C93.2311 30.9 97.85 26.2811 97.85 20.6C97.85 14.9189 93.2311 10.3 87.55 10.3C81.8689 10.3 77.25 14.9189 77.25 20.6C77.25 26.2811 81.8689 30.9 87.55 30.9ZM92.7 36.05H82.4C79.5675 36.05 77.0086 37.1927 75.1417 39.0434C81.6275 42.6002 86.2303 49.0216 87.2281 56.65H97.85C100.699 56.65 103 54.3486 103 51.5V46.35C103 40.6689 98.3811 36.05 92.7 36.05ZM51.5 36.05C61.462 36.05 69.525 27.987 69.525 18.025C69.525 8.06297 61.462 0 51.5 0C41.538 0 33.475 8.06297 33.475 18.025C33.475 27.987 41.538 36.05 51.5 36.05ZM63.86 41.2H62.5242C59.1767 42.8094 55.4591 43.775 51.5 43.775C47.5409 43.775 43.8394 42.8094 40.4758 41.2H39.14C28.9044 41.2 20.6 49.5044 20.6 59.74V64.375C20.6 68.6399 24.0602 72.1 28.325 72.1H74.675C78.9398 72.1 82.4 68.6399 82.4 64.375V59.74C82.4 49.5044 74.0956 41.2 63.86 41.2ZM27.8583 39.0434C25.9914 37.1927 23.4325 36.05 20.6 36.05H10.3C4.61891 36.05 0 40.6689 0 46.35V51.5C0 54.3486 2.30141 56.65 5.15 56.65H15.7558C16.7697 49.0216 21.3725 42.6002 27.8583 39.0434Z" fill="white"/>
</g>
</svg>
